<?xml version="1.0" encoding="iso-8859-1"?>
<!-- Generator: Adobe Illustrator 19.0.0, SVG Export Plug-In . SVG Version: 6.00 Build 0)  -->
<svg fill="#ffa100" version="1.1" id="Capa_1" xmlns="http://www.w3.org/2000/svg" xmlns:xlink="http://www.w3.org/1999/xlink" x="0px" y="0px"
	 viewBox="0 0 477.86 477.86" style="enable-background:new 0 0 477.86 477.86;" xml:space="preserve">
<g>
	<g>
		<g>
			<path d="M435.565,420.094l-63.6-110.4c4.4-4.8,6.8-10.8,6.8-18v-33.6l26-14.4c0,0,0.4,0,0.4-0.4h0.4c0.4,0,0.8-0.4,0.8-0.4
				c6-3.6,10.4-9.2,12-15.6c1.6-6.4,1.2-13.6-2.4-19.6c0-0.4-0.4-0.4-0.4-0.8l-16.4-28.8l15.6-26l0.4-0.4c0,0,0-0.4,0.4-0.4
				c3.6-6.4,4.4-13.6,2.8-20c-1.6-6.4-6-12.4-12.4-16l-28.8-16.8l0.4-30.4c0-0.4,0-0.4,0-0.8c0-7.2-2.8-14-7.6-18.8
				s-11.2-7.6-18.4-7.6h-33.6l-14.4-26c0-0.4,0-0.4-0.4-0.8c0-0.4-0.4-0.4-0.4-0.8c-3.6-6.4-9.6-10.4-16-12.4
				c-6.4-1.6-13.6-1.2-20,2.4l-29.2,16.8l-25.6-15.2h-0.4l-0.4-0.4c0,0-0.4,0-0.4-0.4c-6.4-3.6-13.6-4.4-20-2.8
				c-6.4,1.6-12.4,6-16,12.4l-16.8,28.8l-30.4-0.4c-0.4,0-0.4,0-0.8,0c-6.8,0-13.2,2.8-18,7.2l-0.4,0.4c-4.8,4.8-7.6,11.2-7.6,18.8
				v33.6l-26,14.4h-0.4c0,0-0.4,0-0.4,0.4l-0.4,0.4c-6.4,3.6-10.4,9.6-12.4,16c-1.6,6.4-1.2,13.6,2.4,20l16.8,29.2l-15.2,25.6v0.4
				l-0.4,0.4c0,0,0,0.4-0.4,0.4c-3.6,6.4-4.4,13.6-2.8,20c1.6,6.4,6,12.4,12.4,16l28.8,16.8l-0.4,30.4c0,0.4,0,0.4,0,0.8
				c0,5.6,1.6,10.4,4.4,14.8l-64.4,111.2c-1.2,2-1.6,4.8-0.8,7.6c1.6,4.4,6.4,6.4,10.8,4.8l57.2-22.8l8.8,61.2c0.4,2.4,1.6,4.8,4,6
				c4,2.4,9.2,0.8,11.6-3.2l64.8-112.4c4.4,0,9.2-0.8,13.2-3.2c0.4,0,0.4-0.4,0.8-0.4l28.8-16.4c0.4,0.4,28,16.8,26.4,15.6
				c1.6,0.8,4.4,2.8,10,3.6l65.6,113.6c3.6,7.2,14.4,5.6,15.6-2.8l8.8-61.2l57.2,22.8
				C432.365,434.894,439.565,426.894,435.565,420.094z M131.565,443.294l-7.2-47.6c-0.8-4.4-4.8-7.6-9.6-7.2c-0.8,0-1.6,0.4-2.4,0.8
				l-44.4,17.6l51.2-88.8c2,0.8,4.4,1.2,6.4,1.2h33.6c18.8,34,13.2,23.2,14.8,26.8c0.8,1.6,3.2,5.2,6.4,8L131.565,443.294z
				 M286.765,341.694c-1.2,0.8-2.4,1.2-3.6,1.2c-0.4,0-0.4,0-0.8,0c-4.8,0.4-4-0.8-36.4-19.6c-2.8-1.6-6-1.6-8.4,0l-33.2,19.2
				c-2.4,1.2-4.8,1.6-7.2,0.8c-4-1.2-5.2-4-5.6-4.4c-0.8-1.6-0.8-1.2-0.8-1.6l-16.8-30c-1.6-2.8-4.4-4.4-7.6-4.4h-38
				c-1.6,0-2.8-0.4-4.4-1.2c-0.4-0.4-0.8-0.4-1.2-0.8c-0.4,0-0.4-0.4-0.4-0.4c-1.6-1.6-2.8-4-2.8-6.8c0-0.4,0-0.4,0-0.8l0.4-35.6
				c0-3.2-1.6-6-4-7.2l-33.2-19.2c-2.4-1.2-4-3.6-4.4-5.6c-0.8-2.4-0.4-5.2,0.8-7.2l0.4-0.4c0-0.4,0.4-0.4,0.4-0.8l17.6-29.6
				c1.6-2.8,1.6-6,0-8.4l-18.8-32.8c0-0.4-0.4-0.4-0.4-0.8c-1.2-2.4-1.6-4.8-0.8-7.2c0.8-2.4,2-4.4,4.4-5.6c0.4,0,0.4-0.4,0.8-0.4
				h0.4c0,0,0.4,0,0.4-0.4l30.4-16.8c2.8-1.6,4.4-4.4,4.4-7.6v-38c0-2.8,1.2-5.2,2.8-6.8l0.4-0.4c1.6-1.6,4-2.4,6.4-2.4
				c0.4,0,0.4,0,0.8,0l35.6,0.4c3.2,0,6-1.6,7.2-4l19.2-33.2c1.2-2.4,3.6-4,5.6-4.4c2.123-0.708,4.556-0.474,6.475,0.42
				c0.128,0.022,0.219,0.08,0.295,0.155c0.144,0.075,0.293,0.143,0.43,0.226l29.6,17.6c2.8,1.6,6,1.6,8.4,0l33.2-18.8
				c0.4,0,0.4-0.4,0.8-0.4c2.4-1.2,4.8-1.6,7.2-0.8s4.4,2,5.6,4.4c0,0,0,0.4,0.4,0.4v0.4c0,0.4,0.4,0.4,0.4,0.8l16.8,30
				c1.6,2.8,4.4,4.4,7.6,4.4h38c2.8,0,5.2,1.2,6.8,2.8c1.6,1.6,2.8,4,2.8,6.8c0,0.4,0,0.4,0,0.8l-0.4,35.6c0,3.2,1.6,6,4,7.2
				l33.2,19.2c2.4,1.2,4,3.6,4.4,5.6c0.8,2.4,0.4,5.2-0.8,7.2l-0.4,0.4v0.4l-18,30c-1.6,2.8-1.6,6,0,8.4l19.2,33.2
				c1.2,2.4,1.6,4.8,0.8,7.2c-0.8,2.4-2,4.4-4.4,5.6h-0.4h-0.4c0,0-0.4,0-0.4,0.4l-30.8,18.4c-2.8,1.6-4.4,4.4-4.4,7.6v38
				c0,2.8-1.2,5.2-2.8,6.8c-2.8,2.8-5.6,2.8-7.6,2.8l-34.8-0.4c-3.2-0.4-6.4,1.2-8,4c-0.381,0.381-18.903,32.327-19.615,33.617
				c-0.395,0.405-0.779,1.178-0.385,0.783C288.365,340.494,288.365,340.894,286.765,341.694z M364.365,390.094
				c-5.2-2-10.4,1.2-11.2,6.4l-7.2,47.6l-50.8-88l0.4-0.4c2.4-1.6,4.8-3.6,6.8-6c0.754-1.131,17.845-30.318,18.805-32
				c8.799,0,19.598,0.4,32.795,0.4c1.2,0,2,0,3.2-0.4l52,90L364.365,390.094z"/>
			<path d="M203.165,19.094c-0.009-0.009-0.021-0.016-0.03-0.026c-0.099-0.051-0.193-0.107-0.295-0.155
				c-0.027-0.005-0.043-0.02-0.075-0.02L203.165,19.094z"/>
			<path d="M203.565,19.294l-0.4-0.2C203.265,19.194,203.365,19.294,203.565,19.294z"/>
		</g>
	</g>
</g>
<g>
	<g>
		<path d="M320.365,99.694c-20.8-20.8-49.2-33.2-80.4-33.2c-31.6,0-60,12.8-80.4,33.2c-20.8,20.8-33.2,49.2-33.2,80.4
			c0,31.6,12.8,60,33.2,80.4c20.8,20.8,49.2,33.2,80.4,33.2c31.2,0,60-12.8,80.4-33.2c20.4-20.4,33.2-48.8,33.2-80.4
			C353.565,148.494,340.765,120.094,320.365,99.694z M308.365,248.894c-17.6,17.6-42,28.4-68.8,28.4c-26.8,0-51.2-10.8-68.8-28.4
			c-17.6-17.6-28.4-42-28.4-68.8c0-26.8,10.8-51.2,28.4-68.8c17.6-17.6,42-28.4,68.8-28.4s51.2,10.8,68.8,28.4
			c17.6,17.6,28.4,42,28.4,68.8C336.765,206.894,325.965,231.294,308.365,248.894z"/>
	</g>
</g>
<g>
	<g>
		<path d="M301.965,153.694c-3.2-3.2-7.2-4.8-12-4.8h-26.4l-8-24.4v-0.4c-0.8-2.4-2.4-4.8-4-6.8c-1.6-1.6-3.6-2.8-6-4
			c-0.4-0.4-1.2-0.4-2-0.4c-4-1.2-8.4-0.4-12,1.2c-3.6,2-6.4,4.8-8,8.8c-0.4,0.4-0.4,1.2-0.4,1.6l-8,24.4h-25.2
			c-2.8-0.4-5.6,0.4-8.4,1.6c-2.4,1.2-4.8,2.8-6.4,5.2c-2.8,3.6-3.6,8.4-2.8,12.4c0.8,4.4,2.8,8.4,6.8,11.2l21.2,15.6l-8,25.2
			c0,0.4,0,0.4-0.4,0.8c-0.8,2.4-0.8,4.8-0.4,7.2c0.4,2.4,1.2,5.2,3.2,7.2c2.8,3.6,6.8,6,10.8,6.8c4.4,0.8,8.8-0.4,12.4-3.2
			l21.2-15.6l20.4,14.8c2,2,4.8,3.2,7.6,3.6c2.8,0.4,5.6,0.4,8.4-0.4c4.4-1.6,8-4.4,10-8.4s2.4-8.4,1.2-12.8l-8-25.2l20.8-15.2
			c0.4-0.4,0.8-0.4,1.2-0.8c1.6-1.6,3.2-3.2,4.4-5.2c1.2-2.4,2-4.8,2-7.6C306.765,160.894,305.165,156.894,301.965,153.694z
			 M289.565,166.094l-25.6,18.8c-3.2,2.4-4.4,6.4-2.8,9.6l10,30v0.4c-0.4-0.4-0.8-0.4-0.8-0.8l-25.2-18.4c-3.2-2.4-7.2-2-10,0
			l-26,19.2v-0.4l10-30.4c1.2-3.6,0-7.2-3.2-9.2l-26.4-18.8c0.4,0,0.8,0,1.2,0h31.2c3.6,0,6.8-2.4,8-6l10-30.8v0.4l9.6,30.4
			c1.2,3.6,4.8,6,8.4,6l32-0.4C289.565,165.694,289.565,166.094,289.565,166.094z"/>
	</g>
</g>
<g>
</g>
<g>
</g>
<g>
</g>
<g>
</g>
<g>
</g>
<g>
</g>
<g>
</g>
<g>
</g>
<g>
</g>
<g>
</g>
<g>
</g>
<g>
</g>
<g>
</g>
<g>
</g>
<g>
</g>
</svg>
