<svg fill="#ffa100" height="512pt" viewBox="0 0 512.00002 512" width="512pt" xmlns="http://www.w3.org/2000/svg"><path d="m438.734375 339.109375 12.0625-12.0625-12.0625-12.066406-18.101563 18.097656c-3.332031 3.332031-3.332031 8.734375 0 12.066406l12.066407 12.074219-12.066407 12.066406 12.066407 12.066406 18.097656-18.097656c3.332031-3.332031 3.332031-8.734375 0-12.066406zm0 0"/><path d="m503.464844 119.316406h-59.730469v-51.199218h-17.066406v51.199218h-59.734375c-4.714844 0-8.535156 3.820313-8.535156 8.535156v102.398438c0 4.714844 3.820312 8.535156 8.535156 8.535156h17.066406v221.867188h-17.066406c-4.714844 0-8.535156 3.820312-8.535156 8.53125v8.535156h-17.621094c-9.113282-.011719-16.5-7.398438-16.511719-16.511719v-34.6875h25.601563c4.710937 0 8.53125-3.820312 8.53125-8.535156v-153.597656c0-4.714844-3.820313-8.535157-8.53125-8.535157h-153.601563c-4.710937 0-8.53125 3.820313-8.53125 8.535157v119.464843h-17.066406v-119.464843c0-4.714844-3.820313-8.535157-8.535157-8.535157h-153.597656c-4.714844 0-8.535156 3.820313-8.535156 8.535157v153.597656c0 4.714844 3.820312 8.535156 8.535156 8.535156h68.265625v68.265625h-17.066406v17.066406h51.199219v-17.066406h-17.066406v-68.265625h68.265624c4.714844 0 8.535157-3.820312 8.535157-8.535156v-17.066406h17.066406v17.066406c0 4.714844 3.820313 8.535156 8.53125 8.535156h68.269531v68.265625h-17.070312v17.066406h51.203125v-17.066406h-17.066407v-68.265625h25.597657v34.6875c.019531 18.535157 15.042969 33.558594 33.578125 33.578125h17.621094v8.53125c0 4.714844 3.820312 8.535156 8.535156 8.535156h136.53125c4.714844 0 8.535156-3.820312 8.535156-8.535156v-34.132812c0-4.710938-3.820312-8.53125-8.535156-8.53125h-17.066406v-221.867188h17.066406c4.714844 0 8.535156-3.820312 8.535156-8.535156v-102.398438c0-4.714843-3.820312-8.535156-8.535156-8.535156zm-452.265625 290.136719h-34.132813v-34.132813h34.132813zm0-51.203125h-34.132813v-34.132812h34.132813zm0-51.199219h-34.132813v-34.132812h34.132813zm51.199219 102.402344h-34.132813v-34.132813h34.132813zm0-51.203125h-34.132813v-34.132812h34.132813zm0-51.199219h-34.132813v-34.132812h34.132813zm51.203124 102.402344h-34.132812v-34.132813h34.132812zm0-51.203125h-34.132812v-34.132812h34.132812zm0-51.199219h-34.132812v-34.132812h34.132812zm85.332032 102.402344h-34.132813v-34.132813h34.132813zm0-51.203125h-34.132813v-34.132812h34.132813zm0-51.199219h-34.132813v-34.132812h34.132813zm51.199218 102.402344h-34.132812v-34.132813h34.132812zm0-51.203125h-34.132812v-34.132812h34.132812zm0-51.199219h-34.132812v-34.132812h34.132812zm17.066407-34.132812h34.132812v34.132812h-34.132812zm0 51.199219h34.132812v34.132812h-34.132812zm0 85.335937v-34.132813h34.132812v34.132813zm187.734375 68.265625v17.066406h-119.46875v-17.066406zm-93.867188-17.066406v-221.867188h68.265625v221.867188zm93.867188-238.933594h-119.46875v-17.066406h102.402344v-17.066406h-102.402344v-51.199219h119.46875zm0 0"/><path d="m392.53125 153.453125h17.070312v17.066406h-17.070312zm0 0"/><path d="m426.667969 153.453125h17.066406v17.066406h-17.066406zm0 0"/><path d="m460.800781 153.453125h17.066407v17.066406h-17.066407zm0 0"/><path d="m162.132812 140.140625c23.5625 0 42.667969-19.101563 42.667969-42.667969 0-23.5625-19.101562-42.667968-42.667969-42.667968-23.5625 0-42.667968 19.105468-42.667968 42.667968.03125 23.550782 19.117187 42.640625 42.667968 42.667969zm0-68.269531c14.140626 0 25.601563 11.464844 25.601563 25.601562 0 14.136719-11.460937 25.601563-25.601563 25.601563-14.136718 0-25.597656-11.464844-25.597656-25.601563 0-14.136718 11.460938-25.601562 25.597656-25.601562zm0 0"/><path d="m93.617188 125.847656-2.976563 33.875c-.410156 4.695313 3.066406 8.832032 7.761719 9.242188.496094.042968.992187.042968 1.488281 0l33.871094-2.976563 21.828125 26.050781c3.023437 3.617188 8.40625 4.09375 12.019531 1.070313.386719-.324219.746094-.679687 1.070313-1.070313l21.828124-26.050781 33.867188 2.976563c4.695312.414062 8.835938-3.054688 9.25-7.75.042969-.496094.042969-.996094 0-1.492188l-2.976562-33.875 26.058593-21.828125c3.617188-3.027343 4.09375-8.40625 1.070313-12.023437-.324219-.386719-.679688-.742188-1.070313-1.066406l-26.058593-21.828126 2.976562-33.871093c.414062-4.695313-3.054688-8.835938-7.75-9.25-.5-.042969-1-.042969-1.5 0l-33.867188 2.976562-21.828124-26.050781c-3.269532-3.613281-8.847657-3.894531-12.464844-.628906-.21875.199218-.425782.410156-.625.628906l-21.828125 26.050781-33.871094-2.976562c-2.511719-.207031-4.988281.695312-6.78125 2.464843-1.785156 1.785157-2.6875 4.265626-2.46875 6.777344l2.980469 33.878906-26.0625 21.828126c-3.613282 3.023437-4.09375 8.402343-1.070313 12.019531.324219.386719.683594.746093 1.070313 1.070312zm14.371093-46.523437c2.136719-1.792969 3.265625-4.511719 3.023438-7.289063l-2.476563-28.160156 28.160156 2.476562c2.777344.253907 5.503907-.875 7.285157-3.023437l18.152343-21.65625 18.148438 21.699219c1.785156 2.144531 4.511719 3.273437 7.289062 3.023437l28.160157-2.476562-2.476563 28.160156c-.242187 2.777344.886719 5.496094 3.023438 7.285156l21.664062 18.152344-21.664062 18.148437c-2.136719 1.792969-3.265625 4.511719-3.023438 7.289063l2.476563 28.160156-28.160157-2.476562c-2.773437-.214844-5.480468.90625-7.289062 3.023437l-18.148438 21.613282-18.152343-21.65625c-1.621094-1.9375-4.015625-3.058594-6.542969-3.054688-.246094-.015625-.496094-.015625-.742188 0l-28.160156 2.472656 2.476563-28.160156c.242187-2.777344-.886719-5.496094-3.023438-7.285156l-21.664062-18.117188zm0 0"/></svg>
