<svg fill="#fff" height="480pt" viewBox="-2 0 480 480.00012" width="480pt" xmlns="http://www.w3.org/2000/svg"><path d="m349.65625 288c3.898438 11.019531 15.167969 17.632812 26.6875 15.65625s19.941406-11.96875 19.941406-23.65625-8.421875-21.675781-19.941406-23.652344c-11.519531-1.980468-22.789062 4.632813-26.6875 15.652344h-73.472656c-22.078125.027344-39.972656 17.917969-40 40v80c0 13.253906-10.742188 24-24 24h-128c-13.253906 0-24-10.746094-24-24v-144c0-13.253906 10.746094-24 24-24h32v8c0 4.417969 3.582031 8 8 8h16v16h-24v16h112v-16h-24v-16h16c4.417968 0 8-3.582031 8-8v-8h16v-16h-16v-8c0-4.417969-3.582032-8-8-8h-16v-16h124.183594c5.3125 0 10.277343-2.632812 13.253906-7.03125 2.976562-4.394531 3.578125-9.984375 1.605468-14.914062l-57.601562-144c-2.410156-6.089844-8.304688-10.0781255-14.855469-10.054688h-197.167969c-6.550781-.0234375-12.445312 3.964844-14.855468 10.054688l-57.601563 144c-1.972656 4.929687-1.371093 10.519531 1.605469 14.914062 2.976562 4.398438 7.941406 7.03125 13.25 7.03125h124.183594v16h-16c-4.417969 0-8 3.582031-8 8v8h-32c-22.078125.027344-39.972656 17.917969-40 40v144c.027344 22.082031 17.921875 39.972656 40 40h128c22.082031-.027344 39.976562-17.917969 40-40v-80c0-13.253906 10.746094-24 24-24zm22.527344-16c4.417968 0 8 3.582031 8 8s-3.582032 8-8 8c-4.417969 0-8-3.582031-8-8s3.582031-8 8-8zm-160-64v16h-8v-16zm84.183594-128h-45.597657l-4.800781-24h40.800781zm-42.398438 16h48.800781l9.597657 24h-53.597657zm-11.519531 24h-62.265625v-24h57.441406zm-8-40h-54.265625v-24h49.441406zm-54.265625-40v-24h41.441406l4.800781 24zm-16 0h-46.238282l4.800782-24h41.4375zm0 16v24h-54.238282l4.800782-24zm-70.558594 24h-45.601562l9.601562-24h40.800781zm-3.199219 16-4.800781 24h-53.601562l9.601562-24zm16.320313 0h57.4375v24h-62.238282zm57.4375 40v24h-70.238282l4.800782-24zm16 0h65.441406l4.800781 24h-70.242187zm86.5625 24-4.800782-24h56.800782l9.597656 24zm13.597656-120h-37.597656l-4.800782-24h32.800782zm-173.917969-24-4.800781 24h-37.601562l9.601562-24zm-80.824219 120h56.800782l-4.800782 24h-61.601562zm162.582032 40v80h-32v-80zm-56 32h8v16h-8zm0 0"/><path d="m324.183594 432h16v-8h8v-16h-8v-8h-16v8h-8v16h8zm0 0"/><path d="m396.183594 408h32v16h-32zm0 0"/><path d="m468.183594 336h-24v-16c0-4.417969-3.582032-8-8-8h-32c-4.417969 0-8 3.582031-8 8v16h-48v-16c0-4.417969-3.582032-8-8-8h-32c-4.417969 0-8 3.582031-8 8v16h-24c-4.417969 0-8 3.582031-8 8v32c0 4.417969 3.582031 8 8 8h8v88c0 4.417969 3.582031 8 8 8h160c4.417968 0 8-3.582031 8-8v-88h8c4.417968 0 8-3.582031 8-8v-32c0-4.417969-3.582032-8-8-8zm-56-8h16v8h-16zm-96 0h16v8h-16zm128 136h-144v-80h144zm16-96h-176v-16h176zm0 0"/></svg>
