<svg height="482pt" fill="#ffa100" viewBox="-89 0 482 482.72533" width="482pt" xmlns="http://www.w3.org/2000/svg"><path d="m160.363281 178.910156v-30.398437c6.132813-11.859375 13.601563-22.984375 22.253907-33.152344 15.820312 12.460937 38.464843 11.082031 52.65625-3.199219 18.777343-18.769531 19.3125-62.914062 19.3125-67.878906 0-4.417969-3.582032-8-8-8-4.96875 0-49.109376.542969-67.878907 19.3125-12.640625 12.496094-15.371093 31.898438-6.664062 47.398438-5.359375 6.207031-10.328125 12.738281-14.878907 19.558593-6.0625-11.058593-13.394531-21.375-21.855468-30.726562 12.179687-21.855469 8.398437-49.136719-9.265625-66.855469-24.296875-24.273438-88.878907-24.96875-96.183594-24.96875-4.417969 0-8 3.582031-8 8 0 7.28125.695313 71.886719 24.96875 96.160156 21.628906 21.597656 56.582031 21.863282 78.535156.59375 7.410157 8.476563 13.785157 17.800782 19 27.78125v46.402344c-82.273437 4.335938-146.117187 73.429688-143.949219 155.789062 2.171876 82.359376 69.558594 148 151.949219 148 82.386719 0 149.777344-65.640624 151.945313-148 2.171875-82.359374-61.671875-151.453124-143.945313-155.789062zm-19.152343 94.945313 51.152343 21.921875v18.726562c0 2.519532 1.183594 4.890625 3.199219 6.398438l28.800781 21.601562v25.335938l-22.402343 29.863281c-2.386719 3.1875-2.070313 7.640625.746093 10.457031l31.039063 31.046875c-19.085938 14.390625-41.648438 23.457031-65.382813 26.273438v-22.976563c1.238281.015625 2.460938-.261718 3.574219-.800781l16-8c2.726562-1.359375 4.441406-4.152344 4.425781-7.199219v-24c0-2.121094-.84375-4.15625-2.34375-5.65625l-16-16c-1.5-1.5-3.535156-2.34375-5.65625-2.34375h-32c-2.121093 0-4.15625.84375-5.65625 2.34375l-16 16c-1.5 1.5-2.34375 3.535156-2.34375 5.65625v24c0 1.578125.46875 3.125 1.34375 4.441406l14.65625 21.957032v11.328125c-18.933593-3.363281-36.933593-10.730469-52.800781-21.597657l10.472656-10.472656c1.492188-1.503906 2.332032-3.535156 2.328125-5.65625v-30.703125l6.65625-19.960937 37.464844-22.480469c2.40625-1.445313 3.878906-4.046875 3.878906-6.855469v-32c0-2.121094-.84375-4.15625-2.34375-5.65625l-21.65625-21.65625v-28.6875c0-1.242187-.285156-2.464844-.839843-3.574218l-16-32c-.519532-1.039063-1.261719-1.949219-2.167969-2.671876l-9.113281-7.28125c20.667968-12.089843 44.175781-18.464843 68.121093-18.472656 3.496094 0 6.917969.265625 10.351563.527344l-24.863282 34.824219c-.96875 1.355469-1.488281 2.980469-1.488281 4.648437v32c0 3.199219 1.90625 6.089844 4.847657 7.351563zm48.800781-206.953125c9.765625-9.765625 33.511719-13.328125 48.253906-14.308594-.984375 14.742188-4.542969 38.484375-14.3125 48.253906-8.1875 8.15625-21.03125 9.316406-30.550781 2.761719 8.203125-8.367187 17.285156-15.824219 27.082031-22.25l-8.25-13.710937c-10.191406 6.554687-19.660156 14.167968-28.253906 22.710937-2.523438-8.332031-.199219-17.375 6.03125-23.457031zm-131.875 25.945312c-14.519531-14.519531-19.140625-54.75-20.085938-76.65625 21.902344.945313 62.136719 5.601563 76.65625 20.089844 11.402344 11.417969 14.839844 28.5625 8.71875 43.496094-11.878906-11.140625-25.152343-20.699219-39.488281-28.433594l-7.152344 14.359375c13.664063 7.480469 26.273438 16.738281 37.503906 27.527344-15.648437 15.289062-40.6875 15.136719-56.152343-.34375zm-41.773438 237.65625c.035157-42.523437 20-82.570312 53.933594-108.191406l11.664063 9.34375 14.402343 28.734375v30.113281c0 2.121094.84375 4.15625 2.34375 5.65625l21.65625 21.65625v24.160156l-36.121093 21.671876c-1.636719.980468-2.867188 2.515624-3.472657 4.328124l-8 24c-.269531.816407-.40625 1.667969-.40625 2.527344v28.6875l-9.480469 9.472656c-29.535156-25.734374-46.5-62.984374-46.519531-102.160156zm128 135.59375v-15.59375c-.003906-1.578125-.46875-3.125-1.34375-4.441406l-14.65625-21.957031v-18.289063l11.3125-11.3125h25.375l11.3125 11.3125v15.742188l-9.886719 4.945312h-6.113281c-4.417969 0-8 3.582032-8 8v32c-2.703125 0-5.335937-.246094-8-.40625zm101.664063-37.242187-27.105469-27.101563 19.839844-26.449218c1.039062-1.386719 1.601562-3.070313 1.601562-4.800782v-32c0-2.519531-1.1875-4.890625-3.199219-6.398437l-28.800781-21.601563v-20c0-3.199218-1.90625-6.089844-4.847656-7.351562l-51.152344-21.921875v-24.167969l28.238281-39.566406c49.375 10.414062 88.902344 47.351562 102.632813 95.90625 13.734375 48.558594-.597656 100.726562-37.207031 135.453125zm0 0"/></svg>
