<svg fill="#ffa100" height="512pt" viewBox="-91 0 512 512" width="512pt" xmlns="http://www.w3.org/2000/svg"><path d="m330 165c0-90.980469-74.019531-165-165-165s-165 74.019531-165 165c0 75.386719 50.820312 139.125 120 158.761719v68.238281h-45c-6.066406 0-11.535156 3.65625-13.859375 9.261719-2.320313 5.601562-1.035156 12.054687 3.253906 16.34375l90 90c2.925781 2.929687 6.765625 4.394531 10.605469 4.394531s7.679688-1.464844 10.605469-4.394531l90-90c4.289062-4.289063 5.574219-10.742188 3.253906-16.347657-2.324219-5.605468-7.792969-9.257812-13.859375-9.257812h-45v-68.238281c69.179688-19.636719 120-83.375 120-158.761719zm-300 0c0-74.4375 60.5625-135 135-135s135 60.5625 135 135-60.5625 135-135 135-135-60.5625-135-135zm165 257h23.785156l-53.785156 53.785156-53.785156-53.785156h23.785156c8.285156 0 15-6.714844 15-15v-77.6875c4.941406.445312 9.941406.6875 15 .6875s10.058594-.242188 15-.6875v77.6875c0 8.285156 6.714844 15 15 15zm0 0"/><path d="m180 255v-21.917969c17.542969-6.148437 30.160156-22.859375 30.160156-42.476562 0-24.8125-20.1875-45-45-45-8.269531 0-15-6.726563-15-15 0-8.269531 6.730469-15 15-15 8.273438 0 15 6.730469 15 15 0 8.285156 6.71875 15 15 15 8.285156 0 15-6.714844 15-15 0-19.613281-12.617187-36.324219-30.160156-42.472657v-13.132812c0-8.285156-6.714844-15-15-15s-15 6.714844-15 15v13.242188c-17.375 6.234374-29.839844 22.867187-29.839844 42.363281 0 24.8125 20.1875 45 45 45 8.273438 0 15 6.730469 15 15 0 8.273437-6.726562 15-15 15-8.269531 0-15-6.726563-15-15 0-8.285157-6.714844-15-15-15-8.28125 0-15 6.714843-15 15 0 19.496093 12.464844 36.128906 29.839844 42.367187v22.027344c0 8.285156 6.714844 15 15 15s15-6.714844 15-15zm0 0"/></svg>
