<?xml version="1.0" encoding="iso-8859-1"?>
<!-- Generator: Adobe Illustrator 19.0.0, SVG Export Plug-In . SVG Version: 6.00 Build 0)  -->
<svg  version="1.1" fill="#ffa100" id="Capa_1" xmlns="http://www.w3.org/2000/svg" xmlns:xlink="http://www.w3.org/1999/xlink" x="0px" y="0px"
	 viewBox="0 0 512 512" style="enable-background:new 0 0 512 512;" xml:space="preserve">
<g>
	<g>
		<path d="M131.769,80.121c-61.606,0-111.727,50.121-111.727,111.727s50.12,111.727,111.727,111.727
			c61.606,0,111.727-50.121,111.727-111.727S193.376,80.121,131.769,80.121z M131.769,288.545
			c-53.318,0-96.697-43.378-96.697-96.697s43.377-96.697,96.697-96.697c53.319,0,96.697,43.378,96.697,96.697
			S185.088,288.545,131.769,288.545z"/>
	</g>
</g>
<g>
	<g>
		<path d="M165.237,175.315c4.15,0,7.515-3.365,7.515-7.515v-8.016c0-17.404-14.16-31.564-31.564-31.564h-0.501v-16.534
			c0-4.15-3.365-7.515-7.515-7.515c-4.15,0-7.515,3.365-7.515,7.515v16.708c-17.975,1.768-32.065,16.966-32.065,35.398
			c0,19.615,15.957,35.572,35.572,35.572h8.016c11.327,0,20.542,9.215,20.542,20.542c0,11.327-9.215,20.542-20.542,20.542h-12.024
			c-9.117,0-16.534-7.417-16.534-16.534c0-4.15-3.365-7.515-7.515-7.515s-7.515,3.365-7.515,7.515
			c0,17.404,14.16,31.564,31.564,31.564h0.501v16.534c0,4.15,3.365,7.515,7.515,7.515c4.15,0,7.515-3.365,7.515-7.515v-16.708
			c17.975-1.768,32.065-16.966,32.065-35.398c0-19.615-15.957-35.572-35.572-35.572h-8.016c-11.327,0-20.542-9.215-20.542-20.542
			c0-11.327,9.215-20.542,20.542-20.542h12.024c9.117,0,16.534,7.417,16.534,16.534v8.016
			C157.722,171.95,161.087,175.315,165.237,175.315z"/>
	</g>
</g>
<g>
	<g>
		<path d="M252.014,367.707c4.15,0,7.515-3.365,7.515-7.515v-48.098c0-4.15-3.365-7.515-7.515-7.515H43.59
			c-4.15,0-7.515,3.365-7.515,7.515v40.583h-8.517c-4.15,0-7.515,3.365-7.515,7.515v48.098c0,4.15,3.365,7.515,7.515,7.515h8.517
			v33.067h-8.517c-4.15,0-7.515,3.365-7.515,7.515v48.098c0,4.15,3.365,7.515,7.515,7.515h208.424c4.15,0,7.515-3.365,7.515-7.515
			v-40.583h8.517c4.15,0,7.515-3.365,7.515-7.515v-48.098c0-4.15-3.365-7.515-7.515-7.515h-8.517v-33.067H252.014z M35.072,400.774
			v-33.067h193.394v33.067H35.072z M228.466,496.97H35.072v-33.067h193.394V496.97z M244.499,415.805v33.067H51.105v-33.067H244.499
			z M51.105,352.676v-33.067h193.394v33.067H51.105z"/>
	</g>
</g>
<g>
	<g>
		<path d="M490.288,138.973L378.059,2.696c-2.96-3.594-8.643-3.594-11.603,0L254.228,138.973c-3.961,4.81-0.417,12.293,5.802,12.293
			h48.599V384.24c0,4.15,3.365,7.515,7.515,7.515h112.228c4.15,0,7.515-3.365,7.515-7.515v-31.564c0-4.15-3.365-7.515-7.515-7.515
			s-7.515,3.365-7.515,7.515v24.049H323.66V143.751c0-4.15-3.365-7.515-7.515-7.515h-40.189l96.303-116.94l96.303,116.94h-40.189
			c-4.15,0-7.515,3.365-7.515,7.515v173.353c0,4.15,3.365,7.515,7.515,7.515s7.515-3.365,7.515-7.515V151.266h48.599
			C490.704,151.266,494.25,143.784,490.288,138.973z"/>
	</g>
</g>
<g>
	<g>
		<path d="M428.373,416.807H316.144c-4.15,0-7.515,3.365-7.515,7.515s3.365,7.515,7.515,7.515h112.228
			c4.15,0,7.515-3.365,7.515-7.515S432.523,416.807,428.373,416.807z"/>
	</g>
</g>
<g>
	<g>
		<path d="M428.373,456.888H316.144c-4.15,0-7.515,3.365-7.515,7.515s3.365,7.515,7.515,7.515h112.228
			c4.15,0,7.515-3.365,7.515-7.515S432.523,456.888,428.373,456.888z"/>
	</g>
</g>
<g>
	<g>
		<path d="M428.373,496.97H316.144c-4.15,0-7.515,3.365-7.515,7.515c0,4.15,3.365,7.515,7.515,7.515h112.228
			c4.15,0,7.515-3.365,7.515-7.515C435.888,500.335,432.523,496.97,428.373,496.97z"/>
	</g>
</g>
<g>
</g>
<g>
</g>
<g>
</g>
<g>
</g>
<g>
</g>
<g>
</g>
<g>
</g>
<g>
</g>
<g>
</g>
<g>
</g>
<g>
</g>
<g>
</g>
<g>
</g>
<g>
</g>
<g>
</g>
</svg>
