<svg fill="#ffa100" height="496pt" viewBox="0 0 496 496" width="496pt" xmlns="http://www.w3.org/2000/svg"><path d="m472 0h-192c-13.230469 0-24 10.769531-24 24v56h-216c-22.054688 0-40 17.945312-40 40v72h64v128h-24c-22.054688 0-40 17.945312-40 40s17.945312 40 40 40h24v56c0 22.054688 17.945312 40 40 40h336c22.054688 0 40-17.945312 40-40v-40h-96v-80h88c13.230469 0 24-10.769531 24-24v-288c0-13.230469-10.769531-24-24-24zm-456 176v-56c0-13.230469 10.769531-24 24-24s24 10.769531 24 24v56zm64 208h-16v-48h16zm16-16h96v16h-96zm112-27.054688 29.265625 14.628907c1.6875.851562 2.734375 2.539062 2.734375 4.425781s-1.046875 3.574219-2.734375 4.425781l-29.265625 14.628907zm-16 11.054688h-96v-16h96zm-176 8c0-13.230469 10.769531-24 24-24h8v48h-8c-13.230469 0-24-10.769531-24-24zm448 96c0 13.230469-10.769531 24-24 24h-304.015625c5.023437-6.6875 8.015625-15 8.015625-24v-24h320zm-96-40h-240v40c0 13.230469-10.769531 24-24 24s-24-10.769531-24-24v-56h121.886719l42.527343-21.265625c7.144532-3.566406 11.585938-10.742187 11.585938-18.734375s-4.441406-15.167969-11.574219-18.734375l-42.539062-21.265625h-121.886719v-200c0-9.039062-3.128906-17.296875-8.207031-24h184.207031v216c0 13.230469 10.769531 24 24 24h88zm112-104c0 4.40625-3.59375 8-8 8h-192c-4.40625 0-8-3.59375-8-8v-288c0-4.40625 3.59375-8 8-8h192c4.40625 0 8 3.59375 8 8zm0 0"/><path d="m416 304h48v-48h-48zm16-32h16v16h-16zm0 0"/><path d="m416 240h48v-48h-48zm16-32h16v16h-16zm0 0"/><path d="m352 304h48v-48h-48zm16-32h16v16h-16zm0 0"/><path d="m352 240h48v-48h-48zm16-32h16v16h-16zm0 0"/><path d="m288 304h48v-48h-48zm16-32h16v16h-16zm0 0"/><path d="m288 240h48v-48h-48zm16-32h16v16h-16zm0 0"/><path d="m352 176h48v-48h-48zm16-32h16v16h-16zm0 0"/><path d="m416 176h48v-48h-48zm16-32h16v16h-16zm0 0"/><path d="m288 176h48v-48h-48zm16-32h16v16h-16zm0 0"/><path d="m288 112h176v-80h-176zm16-64h144v48h-144zm0 0"/><path d="m168 192c8.824219 0 16 7.175781 16 16h16c0-14.863281-10.238281-27.289062-24-30.863281v-17.136719h-16v17.136719c-13.761719 3.574219-24 16-24 30.863281 0 17.648438 14.351562 32 32 32 8.824219 0 16 7.175781 16 16s-7.175781 16-16 16-16-7.175781-16-16h-16c0 14.863281 10.238281 27.289062 24 30.863281v17.136719h16v-17.136719c13.761719-3.574219 24-16 24-30.863281 0-17.648438-14.351562-32-32-32-8.824219 0-16-7.175781-16-16s7.175781-16 16-16zm0 0"/><path d="m104 112h136v16h-136zm0 0"/></svg>
